<svg xmlns="http://www.w3.org/2000/svg" viewBox="0 0 512 512">
<defs>
<linearGradient id="sky" x1="0" y1="0" x2="0" y2="1"><stop offset="0" stop-color="#cfe2e6"/><stop offset="1" stop-color="#eef2e2"/></linearGradient>
<linearGradient id="p" x1="0" y1="1" x2="0" y2="0"><stop offset="0" stop-color="#efe8dc"/><stop offset=".5" stop-color="#ffffff"/><stop offset="1" stop-color="#f3b9c8"/></linearGradient>
</defs>
<rect width="512" height="512" fill="url(#sky)"/>
<path d="M0 430 Q128 410 256 424 T512 420 V512 H0Z" fill="#7ea846"/>
<path d="M256 470 C248 420 266 330 256 236" stroke="#4d7a28" stroke-width="12" fill="none" stroke-linecap="round"/>
<g transform="translate(256 226) scale(1.05)"><g transform="rotate(-90) translate(0 -16)"><path d="M0 0C14.4 -9.2 14.9 -89.2 0 -92C-14.9 -89.2 -14.4 -9.2 0 0Z" fill="url(#p)" stroke="#e3d8c8" stroke-width="1.2"/></g><g transform="rotate(-73.6) translate(0 -16)"><path d="M0 0C14.4 -9.2 14.9 -89.2 0 -92C-14.9 -89.2 -14.4 -9.2 0 0Z" fill="url(#p)" stroke="#e3d8c8" stroke-width="1.2"/></g><g transform="rotate(-57.3) translate(0 -16)"><path d="M0 0C14.4 -9.2 14.9 -89.2 0 -92C-14.9 -89.2 -14.4 -9.2 0 0Z" fill="url(#p)" stroke="#e3d8c8" stroke-width="1.2"/></g><g transform="rotate(-8.2) translate(0 -16)"><path d="M0 0C14.4 -9.2 14.9 -89.2 0 -92C-14.9 -89.2 -14.4 -9.2 0 0Z" fill="url(#p)" stroke="#e3d8c8" stroke-width="1.2"/></g><g transform="rotate(8.2) translate(0 -16)"><path d="M0 0C14.4 -9.2 14.9 -89.2 0 -92C-14.9 -89.2 -14.4 -9.2 0 0Z" fill="url(#p)" stroke="#e3d8c8" stroke-width="1.2"/></g><g transform="rotate(24.5) translate(0 -16)"><path d="M0 0C14.4 -9.2 14.9 -89.2 0 -92C-14.9 -89.2 -14.4 -9.2 0 0Z" fill="url(#p)" stroke="#e3d8c8" stroke-width="1.2"/></g><g transform="rotate(40.9) translate(0 -16)"><path d="M0 0C14.4 -9.2 14.9 -89.2 0 -92C-14.9 -89.2 -14.4 -9.2 0 0Z" fill="url(#p)" stroke="#e3d8c8" stroke-width="1.2"/></g><g transform="rotate(57.3) translate(0 -16)"><path d="M0 0C14.4 -9.2 14.9 -89.2 0 -92C-14.9 -89.2 -14.4 -9.2 0 0Z" fill="url(#p)" stroke="#e3d8c8" stroke-width="1.2"/></g><g transform="rotate(73.6) translate(0 -16)"><path d="M0 0C14.4 -9.2 14.9 -89.2 0 -92C-14.9 -89.2 -14.4 -9.2 0 0Z" fill="url(#p)" stroke="#e3d8c8" stroke-width="1.2"/></g><g transform="rotate(90) translate(0 -16)"><path d="M0 0C14.4 -9.2 14.9 -89.2 0 -92C-14.9 -89.2 -14.4 -9.2 0 0Z" fill="url(#p)" stroke="#e3d8c8" stroke-width="1.2"/></g><g transform="rotate(106.4) translate(0 -16)"><path d="M0 0C14.4 -9.2 14.9 -89.2 0 -92C-14.9 -89.2 -14.4 -9.2 0 0Z" fill="url(#p)" stroke="#e3d8c8" stroke-width="1.2"/></g><g transform="rotate(122.7) translate(0 -16)"><path d="M0 0C14.4 -9.2 14.9 -89.2 0 -92C-14.9 -89.2 -14.4 -9.2 0 0Z" fill="url(#p)" stroke="#e3d8c8" stroke-width="1.2"/></g><g transform="rotate(139.1) translate(0 -16)"><path d="M0 0C14.4 -9.2 14.9 -89.2 0 -92C-14.9 -89.2 -14.4 -9.2 0 0Z" fill="url(#p)" stroke="#e3d8c8" stroke-width="1.2"/></g><g transform="rotate(155.5) translate(0 -16)"><path d="M0 0C14.4 -9.2 14.9 -89.2 0 -92C-14.9 -89.2 -14.4 -9.2 0 0Z" fill="url(#p)" stroke="#e3d8c8" stroke-width="1.2"/></g><g transform="rotate(171.8) translate(0 -16)"><path d="M0 0C14.4 -9.2 14.9 -89.2 0 -92C-14.9 -89.2 -14.4 -9.2 0 0Z" fill="url(#p)" stroke="#e3d8c8" stroke-width="1.2"/></g><g transform="rotate(188.2) translate(0 -16)"><path d="M0 0C14.4 -9.2 14.9 -89.2 0 -92C-14.9 -89.2 -14.4 -9.2 0 0Z" fill="url(#p)" stroke="#e3d8c8" stroke-width="1.2"/></g><g transform="rotate(204.5) translate(0 -16)"><path d="M0 0C14.4 -9.2 14.9 -89.2 0 -92C-14.9 -89.2 -14.4 -9.2 0 0Z" fill="url(#p)" stroke="#e3d8c8" stroke-width="1.2"/></g><g transform="rotate(220.9) translate(0 -16)"><path d="M0 0C14.4 -9.2 14.9 -89.2 0 -92C-14.9 -89.2 -14.4 -9.2 0 0Z" fill="url(#p)" stroke="#e3d8c8" stroke-width="1.2"/></g><g transform="rotate(237.3) translate(0 -16)"><path d="M0 0C14.4 -9.2 14.9 -89.2 0 -92C-14.9 -89.2 -14.4 -9.2 0 0Z" fill="url(#p)" stroke="#e3d8c8" stroke-width="1.2"/></g><g transform="rotate(253.6) translate(0 -16)"><path d="M0 0C14.4 -9.2 14.9 -89.2 0 -92C-14.9 -89.2 -14.4 -9.2 0 0Z" fill="url(#p)" stroke="#e3d8c8" stroke-width="1.2"/></g><circle r="24" fill="#e7a51c" stroke="#c9860e" stroke-width="2"/><circle cx="-1.6" cy="1.5" r="1.7" fill="#f9d34d"/><circle cx="0.3" cy="-3.1" r="1.7" fill="#f1bb2a"/><circle cx="2.3" cy="3" r="1.7" fill="#f9d34d"/><circle cx="-4.4" cy="-0.8" r="1.7" fill="#f1bb2a"/><circle cx="4.2" cy="-2.7" r="1.7" fill="#f9d34d"/><circle cx="-1.4" cy="5.2" r="1.7" fill="#f1bb2a"/><circle cx="-2.7" cy="-5.2" r="1.7" fill="#f9d34d"/><circle cx="5.9" cy="2.1" r="1.7" fill="#f1bb2a"/><circle cx="-6.1" cy="2.5" r="1.7" fill="#f9d34d"/><circle cx="3" cy="-6.3" r="1.7" fill="#f1bb2a"/><circle cx="2.2" cy="7" r="1.7" fill="#f9d34d"/><circle cx="-6.6" cy="-3.8" r="1.7" fill="#f1bb2a"/><circle cx="7.8" cy="-1.7" r="1.7" fill="#f9d34d"/><circle cx="-4.8" cy="6.8" r="1.7" fill="#f1bb2a"/><circle cx="-1.1" cy="-8.5" r="1.7" fill="#f9d34d"/><circle cx="6.8" cy="5.7" r="1.7" fill="#f1bb2a"/><circle cx="-9.1" cy="0.4" r="1.7" fill="#f9d34d"/><circle cx="6.7" cy="-6.6" r="1.7" fill="#f1bb2a"/><circle cx="-0.4" cy="9.6" r="1.7" fill="#f9d34d"/><circle cx="-6.3" cy="-7.6" r="1.7" fill="#f1bb2a"/><circle cx="10.1" cy="1.4" r="1.7" fill="#f9d34d"/><circle cx="-8.5" cy="5.9" r="1.7" fill="#f1bb2a"/><circle cx="2.3" cy="-10.4" r="1.7" fill="#f9d34d"/><circle cx="5.4" cy="9.4" r="1.7" fill="#f1bb2a"/><circle cx="-10.5" cy="-3.4" r="1.7" fill="#f9d34d"/><circle cx="10.2" cy="-4.7" r="1.7" fill="#f1bb2a"/><circle cx="-4.4" cy="10.6" r="1.7" fill="#f9d34d"/><circle cx="-4" cy="-11" r="1.7" fill="#f1bb2a"/><circle cx="10.6" cy="5.5" r="1.7" fill="#f9d34d"/><circle cx="-11.7" cy="3.1" r="1.7" fill="#f1bb2a"/><circle cx="6.7" cy="-10.4" r="1.7" fill="#f9d34d"/><circle cx="2.1" cy="12.3" r="1.7" fill="#f1bb2a"/><circle cx="-10.1" cy="-7.8" r="1.7" fill="#f9d34d"/><circle cx="12.9" cy="-1.1" r="1.7" fill="#f1bb2a"/><circle cx="-8.9" cy="9.6" r="1.7" fill="#f9d34d"/><circle cx="0.1" cy="-13.3" r="1.7" fill="#f1bb2a"/><circle cx="9" cy="10" r="1.7" fill="#f9d34d"/><circle cx="-13.6" cy="-1.3" r="1.7" fill="#f1bb2a"/><circle cx="11" cy="-8.4" r="1.7" fill="#f9d34d"/><circle cx="-2.5" cy="13.8" r="1.7" fill="#f1bb2a"/><circle cx="-7.6" cy="-12" r="1.7" fill="#f9d34d"/><circle cx="13.8" cy="3.8" r="1.7" fill="#f1bb2a"/><circle cx="-12.9" cy="6.6" r="1.7" fill="#f9d34d"/><circle cx="5.1" cy="-13.8" r="1.7" fill="#f1bb2a"/><circle cx="5.6" cy="13.8" r="1.7" fill="#f9d34d"/><circle cx="-13.6" cy="-6.4" r="1.7" fill="#f1bb2a"/><circle cx="14.5" cy="-4.5" r="1.7" fill="#f9d34d"/><circle cx="-7.8" cy="13.2" r="1.7" fill="#f1bb2a"/><circle cx="-3.3" cy="-15.1" r="1.7" fill="#f9d34d"/><circle cx="12.8" cy="9.1" r="1.7" fill="#f1bb2a"/><circle cx="-15.7" cy="2" r="1.7" fill="#f9d34d"/><circle cx="10.3" cy="-12.2" r="1.7" fill="#f1bb2a"/><circle cx="0.6" cy="16.1" r="1.7" fill="#f9d34d"/><circle cx="-11.4" cy="-11.6" r="1.7" fill="#f1bb2a"/><circle cx="16.4" cy="0.8" r="1.7" fill="#f9d34d"/><circle cx="-12.8" cy="10.6" r="1.7" fill="#f1bb2a"/><circle cx="2.3" cy="-16.6" r="1.7" fill="#f9d34d"/><circle cx="9.6" cy="13.9" r="1.7" fill="#f1bb2a"/><circle cx="-16.6" cy="-3.8" r="1.7" fill="#f9d34d"/><circle cx="14.9" cy="-8.5" r="1.7" fill="#f1bb2a"/><circle cx="-5.3" cy="16.4" r="1.7" fill="#f9d34d"/><circle cx="-7.2" cy="-15.9" r="1.7" fill="#f1bb2a"/><circle cx="16.2" cy="6.9" r="1.7" fill="#f9d34d"/><circle cx="-16.7" cy="5.9" r="1.7" fill="#f1bb2a"/><circle cx="8.4" cy="-15.8" r="1.7" fill="#f9d34d"/><circle cx="4.5" cy="17.4" r="1.7" fill="#f1bb2a"/><circle cx="-15.2" cy="-9.9" r="1.7" fill="#f9d34d"/><circle cx="18" cy="-3" r="1.7" fill="#f1bb2a"/><circle cx="-11.3" cy="14.5" r="1.7" fill="#f9d34d"/><circle cx="-1.4" cy="-18.5" r="1.7" fill="#f1bb2a"/><circle cx="13.6" cy="12.7" r="1.7" fill="#f9d34d"/><circle cx="-18.8" cy="-0.2" r="1.7" fill="#f1bb2a"/><circle cx="14.1" cy="-12.6" r="1.7" fill="#f9d34d"/><circle cx="-1.8" cy="19" r="1.7" fill="#f1bb2a"/><circle cx="-11.5" cy="-15.3" r="1.7" fill="#f9d34d"/><circle cx="19" cy="3.5" r="1.7" fill="#f1bb2a"/><circle cx="-16.5" cy="10.3" r="1.7" fill="#f9d34d"/><circle cx="5.3" cy="-18.8" r="1.7" fill="#f1bb2a"/><circle cx="8.9" cy="17.5" r="1.7" fill="#f9d34d"/><circle cx="-18.5" cy="-7" r="1.7" fill="#f1bb2a"/><circle cx="18.5" cy="-7.4" r="1.7" fill="#f9d34d"/><circle cx="-8.7" cy="18.1" r="1.7" fill="#f1bb2a"/><circle cx="-5.9" cy="-19.3" r="1.7" fill="#f9d34d"/><circle cx="17.5" cy="10.3" r="1.7" fill="#f1bb2a"/><circle cx="-20" cy="4.2" r="1.7" fill="#f9d34d"/><circle cx="12" cy="-16.7" r="1.7" fill="#f1bb2a"/><circle cx="2.5" cy="20.5" r="1.7" fill="#f9d34d"/><circle cx="-15.8" cy="-13.5" r="1.7" fill="#f1bb2a"/><circle cx="20.9" cy="-0.7" r="1.7" fill="#f9d34d"/><circle cx="-15" cy="14.7" r="1.7" fill="#f1bb2a"/></g>
<g transform="translate(404 380) rotate(38) scale(1.05)"><g transform="translate(0 46)"><path d="M0 0C14.4 -9.2 14.9 -89.2 0 -92C-14.9 -89.2 -14.4 -9.2 0 0Z" fill="url(#p)" stroke="#e3d8c8" stroke-width="1.2"/></g></g>
</svg>